<?xml version="1.0" encoding="UTF-8"?>
<svg version="1.1" xmlns="http://www.w3.org/2000/svg" width="188" height="188">
<path d="M0 0 C62.04 0 124.08 0 188 0 C188 62.04 188 124.08 188 188 C125.96 188 63.92 188 0 188 C0 125.96 0 63.92 0 0 Z " fill="#FEFEFE" transform="translate(0,0)"/>
<path d="M0 0 C1.12758089 3.38274266 0.81750262 4.76778223 0.0625 8.1875 C-0.13214844 9.08855469 -0.32679687 9.98960938 -0.52734375 10.91796875 C-0.68332031 11.60503906 -0.83929688 12.29210938 -1 13 C0.07701172 12.68095703 0.07701172 12.68095703 1.17578125 12.35546875 C6.56180107 11.67756031 10.68357573 15.07016901 15 18 C24.25624245 25.20081214 31.60890957 36.35788235 34 48 C34.76390637 57.66920281 35.08761757 68.04765126 31 77 C30.60941406 77.886875 30.21882813 78.77375 29.81640625 79.6875 C23.14892981 93.28688537 12.59623085 100.40670632 -1 106 C-5.11205402 107.15850438 -9.05315205 107.10230699 -13.3125 107.0625 C-14.56675781 107.05347656 -15.82101563 107.04445313 -17.11328125 107.03515625 C-18.06589844 107.02355469 -19.01851562 107.01195312 -20 107 C-20 106.01 -20 105.02 -20 104 C-20.66 104 -21.32 104 -22 104 C-23.4631783 105.97440927 -24.80713064 107.93238871 -26.125 110 C-26.49753906 110.57234375 -26.87007812 111.1446875 -27.25390625 111.734375 C-28.17550408 113.15221782 -29.08855821 114.57560725 -30 116 C-31.09695807 112.70912579 -30.92619032 111.92609175 -30.01196289 108.7121582 C-29.77163834 107.85149246 -29.53131378 106.99082672 -29.28370667 106.1040802 C-29.01606003 105.17899155 -28.74841339 104.25390289 -28.47265625 103.30078125 C-28.20488876 102.35059616 -27.93712128 101.40041107 -27.66123962 100.4214325 C-26.80295359 97.38280052 -25.93288265 94.34768667 -25.0625 91.3125 C-24.47903928 89.25477785 -23.8963472 87.1968376 -23.31445312 85.13867188 C-21.88521619 80.08988182 -20.44628556 75.04393103 -19 70 C-19.55349121 70.08564209 -20.10698242 70.17128418 -20.67724609 70.25952148 C-23.24275435 70.65489274 -25.80886621 71.0462101 -28.375 71.4375 C-29.24511719 71.57220703 -30.11523438 71.70691406 -31.01171875 71.84570312 C-36.99452774 72.75420375 -42.9732528 73.45572714 -49 74 C-45.39302074 67.18259997 -41.29569937 60.81922184 -36.9281311 54.4642334 C-35.29032833 52.08115718 -33.66110272 49.69225831 -32.03120422 47.30377197 C-31.14287533 46.00216508 -30.25410141 44.70086182 -29.36491394 43.39984131 C-23.88565645 35.37948844 -18.45316757 27.32753409 -13.01843262 19.27697754 C-11.32160387 16.76348545 -9.62426527 14.25033844 -7.92675781 11.73730469 C-5.28416738 7.82509784 -2.64196369 3.91263012 0 0 Z " fill="#FBFBFB" transform="translate(109,36)"/>
<path d="M0 0 C1.09695807 3.29087421 0.92619032 4.07390825 0.01196289 7.2878418 C-0.22836166 8.14850754 -0.46868622 9.00917328 -0.71629333 9.8959198 C-0.98393997 10.82100845 -1.25158661 11.74609711 -1.52734375 12.69921875 C-1.79511124 13.64940384 -2.06287872 14.59958893 -2.33876038 15.5785675 C-3.19704641 18.61719948 -4.06711735 21.65231333 -4.9375 24.6875 C-5.52096072 26.74522215 -6.1036528 28.8031624 -6.68554688 30.86132812 C-8.11478381 35.91011818 -9.55371444 40.95606897 -11 46 C-10.44650879 45.91435791 -9.89301758 45.82871582 -9.32275391 45.74047852 C-6.75724565 45.34510726 -4.19113379 44.9537899 -1.625 44.5625 C-0.75488281 44.42779297 0.11523438 44.29308594 1.01171875 44.15429688 C6.99452774 43.24579625 12.9732528 42.54427286 19 42 C15.3594119 48.82790514 11.27054297 55.19748036 6.875 61.5625 C5.38322959 63.738984 3.8923257 65.91604295 2.40234375 68.09375 C1.99498489 68.6883754 1.58762604 69.28300079 1.16792297 69.89564514 C-5.12222023 79.08623056 -11.33557987 88.32903288 -17.5625 97.5625 C-18.79504177 99.38943322 -20.02762555 101.21633809 -21.26025391 103.04321289 C-24.17397977 107.36182023 -27.08715498 111.6807985 -30 116 C-31.09695807 112.70912579 -30.92619032 111.92609175 -30.01196289 108.7121582 C-29.77163834 107.85149246 -29.53131378 106.99082672 -29.28370667 106.1040802 C-29.01606003 105.17899155 -28.74841339 104.25390289 -28.47265625 103.30078125 C-28.20488876 102.35059616 -27.93712128 101.40041107 -27.66123962 100.4214325 C-26.80295359 97.38280052 -25.93288265 94.34768667 -25.0625 91.3125 C-24.47903928 89.25477785 -23.8963472 87.1968376 -23.31445312 85.13867188 C-21.88521619 80.08988182 -20.44628556 75.04393103 -19 70 C-19.55349121 70.08564209 -20.10698242 70.17128418 -20.67724609 70.25952148 C-23.24275435 70.65489274 -25.80886621 71.0462101 -28.375 71.4375 C-29.24511719 71.57220703 -30.11523438 71.70691406 -31.01171875 71.84570312 C-36.99452774 72.75420375 -42.9732528 73.45572714 -49 74 C-45.39302074 67.18259997 -41.29569937 60.81922184 -36.9281311 54.4642334 C-35.29032833 52.08115718 -33.66110272 49.69225831 -32.03120422 47.30377197 C-31.14287533 46.00216508 -30.25410141 44.70086182 -29.36491394 43.39984131 C-23.88565645 35.37948844 -18.45316757 27.32753409 -13.01843262 19.27697754 C-11.32160387 16.76348545 -9.62426527 14.25033844 -7.92675781 11.73730469 C-5.28416738 7.82509784 -2.64196369 3.91263012 0 0 Z " fill="#030303" transform="translate(109,36)"/>
<path d="M0 0 C1.25425781 0.00902344 2.50851563 0.01804688 3.80078125 0.02734375 C4.75339844 0.03894531 5.70601562 0.05054688 6.6875 0.0625 C5.58733055 3.18929739 5.01263857 4.79548989 2.6875 7.0625 C-0.53819451 7.93538711 -3.6625178 8.26694412 -6.984375 8.61328125 C-16.98117709 9.96261486 -26.03483843 16.34742994 -32.3125 24.0625 C-39.1948228 35.32777574 -41.14572952 47.53409747 -38.66015625 60.453125 C-35.53648077 70.91006436 -28.65908312 79.91064581 -19.09375 85.31640625 C-17.18958807 86.27854441 -15.25353929 87.17711366 -13.3125 88.0625 C-13.6425 90.3725 -13.9725 92.6825 -14.3125 95.0625 C-24.0298348 93.5463201 -32.44095903 86.70181675 -38.3125 79.0625 C-46.4932381 65.63609777 -49.23738472 52.65581359 -46.8515625 37.046875 C-46.17941062 34.59549756 -45.35452872 32.38032054 -44.3125 30.0625 C-43.92191406 29.17433594 -43.53132813 28.28617188 -43.12890625 27.37109375 C-36.45400133 13.77546589 -25.91016339 6.65638301 -12.3125 1.0625 C-8.20044598 -0.09600438 -4.25934795 -0.03980699 0 0 Z " fill="#070707" transform="translate(92.3125,44.9375)"/>
<path d="M0 0 C9.71310123 1.51551934 18.13521244 8.35895957 24 16 C32.22688087 29.61726719 34.90212867 42.26540976 32.5390625 58.0859375 C31.86968014 60.51933927 31.04794381 62.70488353 30 65 C29.60941406 65.886875 29.21882813 66.77375 28.81640625 67.6875 C22.14892981 81.28688537 11.59623085 88.40670632 -2 94 C-6.11205402 95.15850438 -10.05315205 95.10230699 -14.3125 95.0625 C-15.56675781 95.05347656 -16.82101563 95.04445313 -18.11328125 95.03515625 C-19.54220703 95.01775391 -19.54220703 95.01775391 -21 95 C-19.89983055 91.87320261 -19.32513857 90.26701011 -17 88 C-13.77430549 87.12711289 -10.6499822 86.79555588 -7.328125 86.44921875 C2.66867709 85.09988514 11.72233843 78.71507006 18 71 C24.87190727 59.75177284 26.90103288 47.47276044 24.3125 34.57421875 C21.06938717 23.93951126 14.40500734 15.28378411 4.7109375 9.67578125 C2.83330075 8.73032812 0.91963245 7.85697877 -1 7 C-0.67 4.69 -0.34 2.38 0 0 Z " fill="#070707" transform="translate(110,48)"/>
<path d="M0 0 C1.29065057 3.8719517 0.22324098 6.44232601 -0.9375 10.1875 C-1.23043945 11.16879883 -1.23043945 11.16879883 -1.52929688 12.16992188 C-2.01182563 13.78227407 -2.50490205 15.39146289 -3 17 C-5 15 -5 15 -5.4375 11.3125 C-5.35542992 6.32446318 -3.12382292 3.7485875 0 0 Z " fill="#101010" transform="translate(109,36)"/>
<path d="M0 0 C0.6875 1.6875 0.6875 1.6875 1 4 C-0.25 6.4375 -0.25 6.4375 -2 9 C-2.8353125 10.3921875 -2.8353125 10.3921875 -3.6875 11.8125 C-4.120625 12.534375 -4.55375 13.25625 -5 14 C-6.38480153 11.23039695 -5.61874033 9.92986935 -4.75 7 C-4.49734375 6.113125 -4.2446875 5.22625 -3.984375 4.3125 C-3 2 -3 2 0 0 Z " fill="#EFEFEF" transform="translate(109,48)"/>
<path d="M0 0 C2 4 2 4 1.25 6.6875 C0 9 0 9 -2 10 C-1.34 6.7 -0.68 3.4 0 0 Z " fill="#171717" transform="translate(80,142)"/>
</svg>
